<?xml version="1.0" standalone="no"?>
<!DOCTYPE svg PUBLIC "-//W3C//DTD SVG 20010904//EN"
 "http://www.w3.org/TR/2001/REC-SVG-20010904/DTD/svg10.dtd">
<svg version="1.0" xmlns="http://www.w3.org/2000/svg"
 width="1594.000000pt" height="1594.000000pt" viewBox="0 0 1594.000000 1594.000000"
 preserveAspectRatio="xMidYMid meet">
<metadata>
Created by potrace 1.11, written by Peter Selinger 2001-2013
</metadata>
<g transform="translate(0.000000,1594.000000) scale(0.100000,-0.100000)"
fill="#000000" stroke="none">
<path d="M7535 15529 c-960 -51 -1900 -281 -2755 -674 -2184 -1003 -3764
-2984 -4244 -5323 -110 -534 -156 -987 -156 -1534 -1 -1018 187 -1963 576
-2903 136 -329 377 -796 570 -1103 90 -144 79 -134 148 -120 l58 11 50 106
c80 171 166 401 208 561 17 64 59 254 150 685 28 136 30 185 9 323 -18 120
-18 176 0 225 7 18 9 15 14 -17 6 -36 54 -132 63 -124 2 3 -1 20 -7 39 -5 19
-13 97 -16 174 -3 85 -11 154 -20 175 l-14 35 31 -30 c37 -35 68 -83 87 -134
l14 -36 -4 54 c-3 39 -18 79 -53 150 -45 89 -49 102 -52 181 l-4 85 36 -70
c20 -38 52 -88 72 -110 l35 -40 -5 37 c-2 20 -20 61 -39 90 -19 30 -47 90 -62
134 -16 43 -35 89 -43 102 -25 39 4 24 48 -25 88 -100 106 -116 137 -129 49
-21 50 -18 4 29 -23 23 -50 56 -61 74 l-19 32 27 -11 c15 -6 70 -10 122 -10
106 0 219 25 321 69 70 30 68 21 29 163 -126 462 -189 1074 -162 1575 25 451
71 738 187 1170 24 88 51 180 59 204 21 59 20 77 -8 125 -23 40 -67 153 -80
209 l-7 28 33 -32 c45 -43 129 -99 140 -93 17 11 7 36 -34 87 -56 71 -98 165
-151 342 -85 280 -110 421 -110 595 1 145 14 210 98 500 31 107 63 240 72 295
15 103 13 227 -7 294 -5 19 -8 36 -6 38 10 10 62 -89 81 -154 l22 -77 8 90 c8
110 39 297 61 372 43 148 129 305 221 403 25 27 98 88 162 136 64 47 142 109
173 135 l57 49 -15 -53 c-8 -29 -28 -80 -44 -113 -16 -33 -27 -61 -25 -63 2
-3 32 9 67 26 64 30 158 104 198 155 39 49 212 198 285 245 90 58 203 111 335
157 58 20 116 43 128 51 23 15 24 15 17 -8 -19 -60 -75 -130 -135 -170 -24
-16 -22 -17 72 -17 182 -1 468 65 648 151 211 100 312 131 477 148 102 11 237
2 344 -21 60 -14 60 -15 -61 -38 -30 -6 -80 -23 -110 -37 l-55 -26 35 -17 c38
-17 181 -19 620 -10 218 4 275 -4 373 -51 36 -17 38 -19 14 -16 -44 6 -174
-11 -231 -30 l-51 -17 70 -24 c91 -31 108 -31 245 0 567 128 1272 155 1865 71
400 -57 787 -157 1175 -305 514 -197 1040 -504 1460 -853 421 -350 777 -748
1071 -1196 154 -234 345 -580 335 -606 -3 -7 -1 -13 4 -11 19 4 164 -336 246
-578 188 -551 277 -1101 277 -1705 0 -518 -53 -924 -182 -1397 -102 -374 -199
-626 -373 -973 -145 -290 -352 -631 -474 -778 -1 -2 -51 31 -111 74 -182 132
-296 204 -312 199 -9 -2 -59 -11 -111 -19 -127 -20 -258 -23 -290 -6 -68 35
-145 103 -366 322 l-240 239 -62 14 c-34 8 -81 27 -105 42 -23 15 -66 37 -95
49 -54 22 -54 22 -31 38 13 9 39 19 58 23 30 5 33 7 16 14 -33 13 -130 10
-207 -6 -79 -17 -154 -13 -185 11 -15 11 -16 13 -2 14 9 0 45 13 79 28 l63 29
-33 6 c-55 12 -112 7 -189 -13 -74 -20 -242 -29 -176 -9 17 4 53 27 80 50 59
49 138 88 180 90 29 0 29 1 7 11 -16 8 -44 8 -99 0 -43 -6 -80 -8 -83 -6 -8 8
43 43 73 49 15 4 25 11 21 16 -10 16 -108 10 -179 -12 -46 -14 -112 -24 -194
-28 l-124 -6 -88 -120 c-49 -66 -93 -128 -99 -137 -12 -20 -5 -25 160 -100 58
-27 159 -74 225 -106 139 -66 825 -411 840 -422 6 -4 64 -36 130 -70 66 -35
136 -73 155 -85 19 -12 53 -31 75 -42 22 -11 56 -29 75 -40 19 -11 112 -64
205 -118 188 -108 595 -352 608 -364 4 -5 -32 -50 -81 -102 -50 -52 -89 -95
-88 -96 1 -1 129 -18 286 -37 681 -86 1823 -270 2200 -355 l38 -8 55 86 c450
700 791 1518 985 2361 398 1725 168 3567 -637 5125 -82 158 -261 477 -301 535
-10 14 -52 79 -95 145 -213 330 -425 604 -725 939 -688 768 -1564 1406 -2509
1826 -814 362 -1651 571 -2556 640 -191 15 -714 20 -910 9z m1811 -1054 c-8
-175 -11 -188 -39 -173 -12 6 -42 13 -67 15 -24 2 -45 5 -47 6 -4 4 58 181 65
187 4 3 9 14 10 25 4 22 38 92 55 113 21 27 29 -32 23 -173z m-1226 102 l0
-52 -45 3 c-25 2 -57 1 -70 -2 l-25 -6 0 -165 0 -165 -55 0 -55 0 -2 168 -3
167 -62 3 -63 3 0 49 0 50 190 0 190 0 0 -53z m-500 -2 c0 -29 -4 -45 -12 -45
-65 -3 -209 -18 -214 -23 -3 -3 -3 -20 1 -38 l7 -32 104 7 104 7 0 -45 0 -44
-104 -7 -104 -7 5 -37 c3 -20 7 -37 8 -39 1 -1 51 2 111 7 59 5 112 7 116 5 4
-3 8 -25 8 -48 l0 -43 -72 -6 c-40 -4 -119 -10 -175 -13 l-103 -7 0 29 c0 16
-7 112 -15 213 -8 102 -14 186 -12 187 3 3 239 21 300 23 l47 1 0 -45z m765
-42 c22 -46 42 -83 45 -83 3 0 18 22 33 48 16 26 39 60 53 75 23 27 27 28 80
21 30 -3 54 -9 52 -13 -16 -35 -145 -208 -153 -203 -5 3 -7 2 -3 -3 4 -4 2
-15 -5 -23 -6 -8 -14 -50 -18 -93 -3 -43 -8 -81 -10 -84 -3 -2 -29 -2 -58 2
l-53 6 6 79 7 80 -71 139 -71 140 63 -3 63 -3 40 -82z m-1240 11 c3 -25 4 -48
1 -51 -2 -3 -52 -12 -110 -21 l-106 -16 0 -39 0 -40 68 8 c37 5 85 9 107 9 40
1 40 1 43 -41 3 -40 2 -42 -30 -47 -119 -18 -161 -26 -164 -29 -2 -2 0 -28 6
-57 18 -94 17 -96 -42 -103 -28 -4 -54 -5 -56 -2 -4 4 -61 387 -62 411 0 7 57
20 148 33 81 13 154 24 162 26 8 1 18 3 21 4 4 0 10 -20 14 -45z m-598 -150
c32 -42 57 -82 57 -90 -1 -7 2 -11 7 -9 4 3 27 -23 50 -57 23 -35 55 -79 71
-99 15 -20 28 -39 28 -42 0 -5 -82 -27 -103 -27 -8 0 -25 15 -38 33 l-24 33
-82 -19 c-85 -21 -93 -27 -93 -84 0 -18 -9 -23 -56 -33 -30 -7 -58 -10 -60 -7
-6 5 71 446 79 453 7 7 63 21 89 23 10 1 41 -30 75 -75z m-458 -68 c6 -4 4
-23 -5 -49 l-15 -43 -59 4 c-44 3 -66 0 -85 -12 -58 -38 -16 -67 87 -59 118
10 178 -29 178 -114 0 -24 -7 -57 -15 -73 -34 -66 -169 -111 -271 -90 -29 6
-54 14 -54 16 0 3 9 22 20 43 l19 39 58 -5 c76 -7 136 16 131 49 -3 22 -8 23
-114 28 -119 5 -134 11 -161 63 -18 36 -13 93 12 131 19 28 78 64 130 77 31 8
128 5 144 -5z m3195 -47 l43 -11 -17 -76 c-9 -43 -22 -94 -29 -115 l-13 -39
-45 7 c-84 12 -84 12 -57 158 16 86 16 87 46 87 16 0 49 -5 72 -11z m871 -28
l50 -19 12 -188 c6 -104 13 -210 15 -236 3 -53 9 -51 -72 -23 -31 11 -35 16
-38 53 -2 22 -8 44 -15 49 -7 5 -45 19 -86 33 l-74 24 -28 -32 -28 -31 -43 14
c-24 9 -49 17 -56 20 -11 4 -11 7 0 18 7 8 56 61 108 118 95 104 202 219 204
219 1 0 24 -9 51 -19z m532 -206 c60 -25 104 -65 125 -112 11 -25 18 -46 16
-47 -1 -2 -26 -7 -54 -13 l-52 -10 -16 34 c-19 39 -75 68 -114 58 -38 -9 -89
-66 -97 -107 -9 -47 17 -102 55 -118 16 -7 50 -10 75 -8 46 3 47 2 72 -40 l25
-42 -36 -15 c-79 -33 -179 -10 -245 56 -45 45 -61 87 -61 155 0 92 58 180 141
213 37 15 126 13 166 -4z m467 -239 c48 -20 100 -70 121 -115 24 -54 16 -68
-40 -73 -44 -3 -47 -2 -60 29 -30 71 -123 89 -178 34 -24 -24 -31 -40 -35 -83
-4 -47 -1 -58 21 -84 22 -25 32 -29 82 -30 52 -1 58 -3 76 -33 27 -45 24 -59
-18 -70 -51 -14 -64 -14 -120 5 -68 23 -113 61 -139 119 -24 51 -34 152 -14
140 5 -3 7 0 4 9 -13 34 58 123 121 151 40 18 137 18 179 1z m461 -288 c87
-44 134 -115 135 -204 0 -70 -41 -148 -99 -189 -39 -27 -50 -30 -120 -30 -69
0 -83 3 -126 30 -27 17 -63 50 -80 74 -27 39 -30 50 -30 120 0 68 3 83 28 119
67 102 185 134 292 80z m390 -282 l39 -33 -78 -98 c-100 -125 -109 -142 -95
-185 14 -39 65 -65 102 -51 22 9 71 62 160 174 21 26 42 47 46 47 4 0 25 -15
47 -34 l39 -33 -40 -49 c-22 -27 -44 -54 -50 -60 -5 -6 -30 -36 -55 -67 -82
-101 -171 -122 -261 -61 -132 90 -144 206 -32 331 21 23 57 67 81 97 24 31 46
56 50 56 4 0 25 -15 47 -34z m421 -360 l37 -34 -16 -143 c-8 -79 -13 -146 -11
-148 2 -2 38 32 80 77 l77 81 25 -20 c65 -51 68 -44 -95 -214 l-148 -155 -37
38 -37 37 15 135 c8 74 16 140 18 147 13 35 -17 13 -90 -64 l-83 -88 -40 39
-41 40 123 125 c67 68 134 137 149 153 14 15 29 28 32 28 3 0 21 -15 42 -34z
m367 -366 c7 -11 45 -55 84 -97 38 -43 86 -97 106 -119 l37 -42 -39 -31 -39
-31 -39 45 c-21 25 -42 45 -47 45 -5 0 -30 -19 -55 -42 -26 -24 -65 -58 -86
-77 -22 -19 -55 -48 -72 -64 l-33 -31 -26 25 c-14 13 -30 32 -36 42 -11 21 -8
24 127 142 44 39 86 76 93 83 11 10 7 21 -28 62 l-41 49 33 30 c39 36 43 37
61 11z m446 -522 c18 -24 30 -47 29 -53 -2 -6 -54 -99 -117 -208 l-113 -197
-34 44 c-38 50 -40 62 -19 90 23 30 19 44 -32 113 -38 49 -52 62 -68 58 -11
-3 -30 -8 -41 -11 -17 -4 -29 4 -59 43 -25 32 -32 49 -23 51 7 2 105 27 218
56 113 30 210 54 217 55 6 0 25 -18 42 -41z m285 -430 c95 -155 98 -211 15
-254 -30 -15 -43 -15 -81 1 -15 6 -18 1 -18 -33 0 -32 -7 -47 -31 -71 -46 -47
-107 -46 -157 2 -38 37 -165 234 -158 246 3 5 38 28 78 52 40 23 80 48 88 55
21 17 182 114 189 114 3 0 37 -51 75 -112z m221 -364 l28 -47 -23 -17 c-12 -9
-38 -25 -58 -35 -21 -11 -71 -38 -112 -61 -41 -22 -100 -54 -131 -71 l-55 -30
-22 38 c-12 21 -22 44 -22 52 0 8 28 29 63 47 99 52 240 131 287 160 8 5 16 9
17 9 0 1 13 -20 28 -45z m145 -287 c0 -4 -64 -39 -142 -78 -79 -39 -144 -74
-146 -79 -2 -4 12 -39 31 -77 54 -107 54 -107 6 -132 -23 -12 -42 -21 -43 -19
-12 16 -137 290 -135 293 4 3 245 119 339 162 l45 21 22 -41 c12 -23 22 -45
23 -50z m168 -366 l20 -49 -193 -81 c-106 -45 -196 -81 -199 -81 -12 0 -48 92
-39 100 4 4 42 21 83 38 41 17 125 51 185 76 61 25 113 46 116 46 4 0 16 -22
27 -49z m93 -241 c72 -201 98 -284 92 -290 -13 -11 -75 -30 -82 -25 -4 2 -16
29 -26 59 -11 31 -22 56 -25 56 -3 0 -73 -24 -155 -54 -83 -30 -151 -53 -152
-52 -1 0 -10 24 -22 52 l-20 52 117 41 c64 23 120 41 123 41 4 0 23 7 43 15
l36 15 -20 50 c-27 68 -26 75 13 88 49 16 57 11 78 -48z m151 -450 l16 -59
-65 -61 c-36 -34 -62 -64 -58 -68 3 -4 43 -16 88 -27 l82 -21 16 -62 c17 -64
15 -68 -23 -53 -13 5 -77 26 -143 45 l-121 36 -72 -20 c-91 -25 -88 -25 -95 9
-3 16 -9 40 -12 53 -6 24 -2 26 73 47 l80 23 103 109 c57 60 106 109 109 109
3 0 13 -27 22 -60z m355 -926 c20 -6 21 -8 7 -21 -15 -15 -233 -93 -301 -108
l-33 -7 0 46 c0 24 -4 56 -10 70 -9 23 -7 25 28 29 47 6 280 -1 309 -9z m-358
-70 c7 -37 11 -67 9 -68 -7 -6 -167 -26 -200 -26 -35 0 -37 2 -43 38 -4 20 -9
44 -11 53 -8 30 14 38 201 72 30 5 32 2 44 -69z m-64 -684 c27 -28 27 -30 12
-54 -44 -66 -40 -171 5 -164 22 3 32 25 58 127 17 64 66 111 117 111 136 0
190 -187 94 -329 -7 -10 -12 -11 -22 -2 -8 6 -25 19 -38 29 -22 17 -23 20 -9
48 18 34 29 99 21 120 -3 8 -15 14 -28 14 -25 0 -33 -15 -60 -112 -23 -84 -49
-110 -117 -116 -50 -4 -58 -2 -91 28 -57 50 -71 129 -41 230 17 57 42 99 60
100 5 0 23 -13 39 -30z m127 -461 c192 -12 198 -13 193 -33 -2 -12 -7 -70 -10
-131 -9 -172 -13 -195 -39 -195 -11 0 -32 3 -44 7 -24 6 -24 6 -17 118 l7 113
-35 4 c-33 4 -35 2 -41 -32 -3 -19 -6 -58 -6 -87 0 -74 -5 -83 -53 -83 l-40 0
6 105 c5 94 4 105 -11 105 -9 0 -27 3 -39 6 -21 6 -21 2 -28 -116 l-8 -122
-44 5 c-24 2 -46 7 -48 9 -5 5 14 316 21 336 2 7 12 11 21 8 10 -2 107 -10
215 -17z m-17 -470 c59 -16 129 -92 145 -157 18 -78 0 -149 -54 -208 -47 -53
-56 -52 -86 6 l-20 39 30 30 c44 43 42 101 -4 147 -29 29 -41 34 -81 34 -26 0
-60 -8 -76 -17 -50 -30 -62 -111 -21 -156 15 -17 13 -20 -20 -54 -33 -33 -39
-35 -54 -22 -29 24 -54 91 -54 147 0 28 4 52 10 52 5 0 7 6 4 14 -13 33 72
128 129 145 45 13 105 13 152 0z m-155 -508 c19 -5 80 -19 135 -31 55 -13 102
-24 103 -26 2 -1 -2 -28 -9 -58 -9 -43 -16 -55 -28 -52 -61 18 -237 56 -255
56 -13 0 -35 -9 -50 -21 -21 -17 -26 -29 -26 -64 0 -37 5 -48 25 -61 20 -13
244 -73 276 -74 8 0 -11 -92 -21 -103 -7 -8 -93 7 -216 38 -139 35 -192 110
-166 234 16 73 54 128 105 152 47 21 76 23 127 10z m-62 -550 c89 -29 162 -58
162 -64 0 -6 -14 -57 -32 -112 -51 -163 -100 -214 -190 -202 -52 7 -88 33
-113 83 -11 21 -21 41 -22 43 -1 1 -36 -7 -77 -19 -42 -13 -79 -20 -82 -17 -3
3 2 30 12 60 l17 55 70 19 c77 20 100 35 95 66 -2 14 -16 24 -43 32 -73 21
-74 23 -57 82 l14 51 42 -12 c22 -7 114 -37 204 -65z m-347 -406 c24 -9 58
-22 74 -30 17 -7 84 -34 150 -59 66 -24 120 -48 120 -53 0 -4 -9 -29 -19 -54
l-20 -46 -100 39 c-56 21 -114 45 -131 52 -16 8 -58 24 -93 36 -34 13 -65 27
-68 32 -7 10 26 98 36 98 4 0 27 -7 51 -15z m-24 -374 c72 -34 134 -61 137
-61 3 0 17 24 31 53 15 28 28 53 29 55 2 1 21 -6 43 -16 27 -12 39 -23 37 -35
-2 -18 -132 -306 -144 -320 -6 -6 -70 22 -88 38 -1 1 9 28 23 59 l25 57 -92
43 c-51 24 -119 55 -151 69 l-58 26 17 38 c9 21 18 44 21 51 7 17 12 16 170
-57z m-296 -396 l70 -36 154 7 155 7 -31 -56 -31 -57 -89 0 c-49 0 -89 -4 -89
-9 0 -9 61 -113 80 -136 9 -10 4 -26 -21 -70 -37 -65 -25 -74 -119 94 -65 116
-73 124 -179 183 l-32 18 17 32 c17 35 34 58 40 58 3 0 36 -16 75 -35z"/>
<path d="M6452 14263 c-6 -37 -10 -68 -9 -70 3 -2 90 18 96 23 3 3 -69 114
-74 114 -1 0 -7 -30 -13 -67z"/>
<path d="M10090 14113 c0 -5 -18 -27 -40 -50 -43 -45 -43 -46 19 -68 l41 -14
0 69 c0 40 -4 70 -10 70 -5 0 -10 -3 -10 -7z"/>
<path d="M11480 13433 c-28 -10 -59 -46 -71 -80 -32 -97 52 -186 145 -152 37
13 86 79 86 115 0 83 -84 145 -160 117z"/>
<path d="M13048 11882 l-57 -17 34 -43 34 -43 30 53 c45 77 46 75 -41 50z"/>
<path d="M13393 11509 l-32 -20 32 -50 c35 -53 60 -68 82 -49 20 16 19 33 -4
79 -30 57 -41 63 -78 40z"/>
<path d="M13258 11424 c-16 -8 -28 -19 -28 -25 0 -19 65 -109 83 -115 22 -7
47 12 47 37 0 24 -52 119 -65 118 -5 0 -22 -7 -37 -15z"/>
<path d="M14057 6073 c-12 -22 -29 -113 -24 -127 9 -23 54 -38 77 -26 16 9 50
86 50 116 0 7 -21 19 -47 28 -54 19 -51 18 -56 9z"/>
<path d="M6330 11609 c-14 -10 -31 -17 -38 -14 -7 3 -11 1 -8 -4 4 -5 -36 -36
-87 -70 -284 -186 -540 -406 -664 -571 -72 -96 -134 -217 -160 -311 -26 -93
-25 -322 1 -404 42 -132 112 -236 208 -308 l51 -37 101 6 c133 9 219 -6 321
-56 169 -82 292 -239 329 -420 l13 -65 36 56 c54 80 79 159 85 261 5 101 -6
153 -50 244 -50 104 -118 159 -301 249 -93 46 -154 81 -150 88 3 6 1 7 -6 3
-15 -10 -102 54 -146 108 -111 135 -105 273 21 531 67 136 208 361 224 357 6
-1 9 2 5 8 -5 9 20 48 136 214 20 28 41 50 48 48 7 -1 10 2 6 8 -7 11 29 62
39 55 3 -3 4 -2 1 2 -3 3 0 12 7 20 18 22 5 23 -22 2z"/>
<path d="M6300 11413 c-29 -31 -59 -68 -68 -82 -9 -15 -22 -30 -28 -36 -13
-12 -114 -153 -114 -159 0 -3 -24 -45 -53 -93 -112 -186 -177 -352 -177 -453
0 -63 28 -139 68 -183 28 -31 126 -94 224 -143 51 -26 118 -62 148 -81 61 -39
160 -131 160 -149 0 -7 7 -14 15 -17 37 -15 113 -211 116 -300 l1 -32 10 35
c5 19 9 94 10 165 1 103 -3 146 -20 208 -48 176 -148 329 -283 433 -34 26 -56
50 -53 56 4 6 2 8 -3 5 -13 -8 -58 49 -79 98 -36 87 0 283 111 595 20 58 41
107 46 108 5 2 7 8 4 13 -3 4 1 22 10 39 8 16 14 30 11 30 -2 0 -27 -26 -56
-57z"/>
<path d="M5462 10978 c-260 -270 -425 -595 -493 -968 -11 -65 -11 -247 2 -316
24 -137 90 -288 179 -410 l47 -65 6 108 c7 152 46 249 149 375 39 47 149 127
202 148 l29 11 -46 30 c-111 73 -220 235 -253 375 -23 97 -21 222 5 314 34
119 73 213 84 198 6 -9 7 -7 3 6 -9 25 67 159 117 208 22 21 38 41 35 43 -3 3
-32 -23 -66 -57z"/>
<path d="M5695 9803 c-78 -18 -191 -76 -250 -130 -94 -84 -155 -230 -155 -368
1 -141 49 -261 142 -356 104 -105 215 -151 363 -152 255 0 462 175 506 427 13
79 1 184 -31 267 -23 57 -97 169 -113 169 -5 0 -6 7 -3 16 3 8 2 12 -4 9 -5
-3 -32 12 -61 34 -76 57 -186 91 -291 90 -46 -1 -92 -3 -103 -6z"/>
<path d="M8106 9433 c-6 -14 -5 -15 5 -6 7 7 10 15 7 18 -3 3 -9 -2 -12 -12z"/>
<path d="M10216 8818 c3 -5 10 -6 15 -3 13 9 11 12 -6 12 -8 0 -12 -4 -9 -9z"/>
<path d="M5856 6777 c-23 -84 -43 -138 -81 -216 -54 -111 -91 -168 -202 -318
l-84 -111 19 -34 c51 -89 177 -295 188 -308 8 -9 25 -38 40 -65 14 -28 40 -72
58 -100 81 -123 98 -154 90 -166 -3 -5 -1 -8 4 -7 9 3 172 -247 226 -347 12
-22 30 -52 40 -67 10 -15 14 -33 10 -39 -4 -7 -3 -9 3 -6 6 4 25 -16 43 -46
18 -28 41 -64 52 -80 10 -15 16 -33 12 -40 -4 -6 -3 -9 1 -4 9 8 92 -128 167
-276 l49 -98 217 7 c119 4 253 9 298 13 l81 6 -13 65 c-81 399 -204 785 -381
1194 -53 123 -55 130 -38 142 11 8 27 14 36 14 10 0 19 3 21 8 8 18 92 81 101
75 6 -4 7 -1 3 6 -10 15 23 53 38 44 6 -3 8 -3 4 2 -4 4 6 21 23 39 42 44 97
129 141 216 44 89 51 83 -102 100 -343 38 -689 162 -963 344 -59 40 -99 61
-101 53z"/>
<path d="M5413 5993 c4 -3 1 -13 -6 -22 -11 -14 -10 -14 5 -2 16 12 16 31 1
31 -4 0 -3 -3 0 -7z"/>
<path d="M6766 5928 c3 -5 10 -6 15 -3 13 9 11 12 -6 12 -8 0 -12 -4 -9 -9z"/>
<path d="M3100 5720 c0 -85 -82 -387 -169 -623 -100 -271 -296 -689 -459 -977
-33 -58 -58 -106 -57 -108 1 -1 83 11 181 27 437 73 917 143 1344 195 111 14
205 28 208 31 3 3 -26 38 -64 78 -269 277 -531 624 -731 967 -85 146 -137 242
-188 343 -26 53 -52 97 -57 97 -4 0 -8 -14 -8 -30z"/>
<path d="M9255 5591 c-3 -5 -2 -12 3 -15 5 -3 9 1 9 9 0 17 -3 19 -12 6z"/>
<path d="M8495 4630 c-4 -6 -1 -9 7 -8 7 2 12 -3 10 -10 -1 -8 2 -11 8 -7 8 5
7 11 -1 21 -14 17 -16 17 -24 4z"/>
</g>
</svg>
